<?xml version="1.0" encoding="UTF-8" standalone="no"?>
<svg xmlns:rdf="http://www.w3.org/1999/02/22-rdf-syntax-ns#" xmlns="http://www.w3.org/2000/svg" xml:space="preserve" height="341.97" width="341.97" version="1.1" xmlns:cc="http://creativecommons.org/ns#" xmlns:dc="http://purl.org/dc/elements/1.1/" viewBox="0 0 34.197461 34.197461"><path d="m17.145 0.1542c-9.3187 0-16.899 7.5813-16.899 16.899 0 9.3175 7.5801 16.899 16.899 16.899 9.3175 0 16.899-7.5811 16.899-16.899 0-9.3175-7.5811-16.899-16.899-16.899zm0 4.3412c6.9238 0 12.557 5.6339 12.557 12.558 0 6.925-5.6337 12.557-12.557 12.557-6.925 0-12.559-5.6324-12.559-12.557 0-6.9238 5.6338-12.558 12.559-12.558zm-5.5914 5.6539v13.807h5.2475c4.97 0 7.8699-2.9588 7.8699-6.9438v-0.03867c0-3.985-2.86-6.825-7.7912-6.825h-5.3262zm3.8275 3.3926h1.5574c2.2875 0 3.8062 1.2812 3.8062 3.4912v0.04004c0 2.2288-1.5188 3.4912-3.8062 3.4912h-1.5574v-7.0225z" fill="#00aef3"/></svg>