<?xml version="1.0" encoding="utf-8"?>
<!-- Svg Vector Icons : http://www.onlinewebfonts.com/icon -->
<!DOCTYPE svg PUBLIC "-//W3C//DTD SVG 1.1//EN" "http://www.w3.org/Graphics/SVG/1.1/DTD/svg11.dtd">
<svg version="1.1" xmlns="http://www.w3.org/2000/svg" xmlns:xlink="http://www.w3.org/1999/xlink" x="0px" y="0px" viewBox="0 0 1000 1000" enable-background="new 0 0 1000 1000" xml:space="preserve">
<metadata> Svg Vector Icons : http://www.onlinewebfonts.com/icon </metadata>
<g><g transform="translate(0.000000,511.000000) scale(0.100000,-0.100000)"><path fill="#737373" d="M4744.6,4906.8c-18.6-4.6-113.8-20.9-209-34.8c-373.9-60.4-782.6-253.1-1061.3-499.3c-336.7-297.2-578.2-787.3-671.1-1370.1c-58.1-364.6-60.4-1244.7-2.3-1609.3C2914.6,666.4,3144.5,122.9,3497.5-251l139.3-150.9L3609-569.1c-37.2-232.2-109.2-452.9-185.8-562c-51.1-79-125.4-125.4-455.2-297.2c-993.9-517.9-1878.7-1033.4-2171.3-1263.3c-308.9-243.8-513.2-550.4-603.8-901c-51.1-197.4-92.9-608.4-92.9-898.7v-204.4h4900h4900v192.8c0,529.5-85.9,993.9-236.9,1274.9c-102.2,192.7-290.3,408.7-485.3,557.3c-299.6,229.9-1189,743.1-2094.7,1212.2c-318.2,167.2-450.5,248.5-494.6,304.2c-76.7,102.2-160.2,346-195.1,573.6l-30.2,181.1L6502.5-251c350.6,373.9,580.6,922,696.7,1651.2c48.8,313.5,55.7,1191.3,11.6,1509.5c-160.2,1142.6-778,1813.7-1816,1973.9C5202,4913.8,4846.7,4925.4,4744.6,4906.8z"/></g></g>
</svg>
