<?xml version="1.0" encoding="UTF-8" standalone="no"?>
<svg xmlns:rdf="http://www.w3.org/1999/02/22-rdf-syntax-ns#" xmlns="http://www.w3.org/2000/svg" viewBox="0 0 202 92" version="1.1" xmlns:cc="http://creativecommons.org/ns#" xmlns:dc="http://purl.org/dc/elements/1.1/">
 <g transform="matrix(.125 0 0 .125 1.3276 .98492)">
  <g>
   <rect height="720" width="1600" y="0" x="-2.5" fill="#e81b23"/>
   <path d="m373.6 185.16c-17.419-0.0844-36.573 1.2066-47.062 3.4941-77.591 16.921-132.65 76.442-142.89 154.47-2.0659 15.74-0.7467 49.028 2.5606 64.623 8.4578 39.882 29.664 75.41 59.238 99.24 25.786 20.778 59.052 34.804 92.682 39.082 14.562 1.8523 45.626 1.5915 60.691-0.50976 15.437-2.1531 31.999-6.1787 46.189-11.227 20.336-7.234 51.288-24.812 65.932-37.445l5.3125-4.584v-76.777-76.777h-76.25-76.25v33.75 33.75h38.775 38.777l-0.33984 25.273-0.33789 25.273-11.498 6.0312c-15.587 8.1778-31.432 12.169-51.898 13.074-17.869 0.78989-30.016-0.69806-43.721-5.3594-37.802-12.857-62.868-45.521-68.525-89.293-5.0299-38.92 10.524-79.492 39.436-102.86 9.9848-8.0715 27.021-16.452 38.746-19.061 13.199-2.9364 41.929-2.0128 56.211 1.8066 16.589 4.4366 30.265 11.94 54.281 29.785 1.817 1.3501 5.0458-2.0467 25.773-27.121 13.033-15.766 23.834-29.397 24.004-30.293 0.16999-0.89568-4.33-5.1116-10-9.3691-30.146-22.636-59.478-33.985-98.135-37.971-6.2235-0.64164-13.782-0.96555-21.699-1.0039zm387.03 0.58007c-31 0-41.731 1.6279-65.705 9.9727-53.249 18.535-94.354 59.798-111.79 112.22-7.4635 22.436-8.752 31.114-8.752 58.939 0 27.651 1.9036 39.878 9.6113 61.727 22.421 63.554 78.426 107.91 148.51 117.62 14.124 1.9574 53.944 0.54878 67.697-2.3945 36.977-7.9132 68.226-24.621 93.566-50.029 20.442-20.498 34.301-42.755 43.109-69.234 7.4635-22.436 8.752-31.114 8.752-58.939 0-21.607-0.39336-26.762-2.9043-37.977-16.23-72.487-67.822-123.08-141.91-139.16-10.918-2.3695-16.516-2.752-40.186-2.752zm253.12 5.5098v175 175h39.375 39.375v-52.402-52.402l44.062-0.52148c42.153-0.4999 44.638-0.66269 57.346-3.748 45.962-11.159 78.119-37.887 91.318-75.898 10.444-30.077 8.8963-68.71-3.8828-96.895-13.5-29.44-40.2-51.95-73.4-61.71-20.9-6.16-25.6-6.43-112.6-6.43h-81.711zm-249.84 66.354c7.6278 0.006 12.511 0.5193 17.973 1.7344 53.666 11.94 88.594 63.299 81.99 120.56-5.0696 43.956-30.564 76.777-70.125 90.275-10.998 3.7525-13.26 4.0789-30.625 4.4121-14.962 0.28713-20.518-0.0995-27.5-1.9141-20.516-5.3318-36.134-14.464-50.367-29.447-22.23-23.403-33.016-56.954-29.133-90.623 5.0702-43.961 30.596-76.819 70.125-90.264 10.538-3.5842 13.802-4.099 28.996-4.5781 3.2756-0.1033 6.1234-0.15818 8.666-0.15625zm328.54 3.65h33.803c46.968 0 59.423 2.898 73.274 17.045 9.5989 9.8044 12.228 17.401 12.268 35.455 0.03 13.588-0.1866 14.833-3.9376 22.75-6.5932 13.917-16.921 22.368-34.156 27.945-5.7769 1.8694-12.815 2.3102-44.062 2.752l-37.188 0.52539v-53.236-53.236zm258.07 139.97a73.052 73.052 0 0 0 -73.051 73.051 73.052 73.052 0 0 0 73.051 73.053 73.052 73.052 0 0 0 73.053 -73.053 73.052 73.052 0 0 0 -73.053 -73.051z" fill="#fff"/>
   <circle cy="474.27" cx="1350.6" r="65.747" fill="#e81b23"/>
  </g>
  <path id="trunk" d="m1346.6 429.34c-20.974 0.13164-39.154 4.8512-39.152 27.967 0.0004 5.9852 0.2051 6.4675 3.7012 6.457 3.4583-0.0107 71.716-0.0827 71.766-0.082 2.6714 0.0332 3.3858-0.61786 3.3731-5.1836-0.066-23.894-15.217-29.312-39.688-29.158zm37.344 36.768c-2.6727 0.0534-69.034 0.0645-73.369 0.041-2.1625-0.0124-2.92 0.5751-2.92 2.4258 0 3.8283-0.2913 33.397-0.125 38.207 0.065 1.8914 1.1116 2.4484 2.5098 2.4668 3.1259 0.0411 10.899 0.14333 13.777 0.082 1.9741-0.0411 2.8239-0.98429 2.92-3.8242 0.09-2.6625-0.042-7.074 0.041-11.021 0.028-1.3311 0.4924-2.3026 1.8496-2.3438 3.4398-0.10423 16.662-0.1059 19.289-0.041 3.3313 0.0823 3.8649 0.0414 3.9472 3.4961 0.098 4.1053 0.084 6.6204-0.039 9.7871-0.1318 3.3833 0.9854 3.7011 2.7949 3.7422 2.6725 0.0607 8.8433-0.0867 11.928-0.041 4.101 0.0588 4.0234-1.1908 4.0703-6.5391 0.021-2.3033 0-10.326-0.082-13.982-0.021-0.90825 0.4535-1.5522 1.0703-1.5625 2.5144-0.0411 3.038 6.539 3.6602 9.8281 2.3068 12.193 7.6386 13.748 12.502 13.777 6.0964 0.0382 11.907-5.0156 11.928-15.422 0-1.5668-0.329-2.9199-1.4805-2.9199-5.1422 0-2.1399 0.0754-4.8535 0-1.4395-0.0411-2.7157 0.16394-2.4278 2.3848 0.2879 2.2208 0.4151 6.3605-2.3847 6.457-1.1927 0.0411-2.1387-0.8216-2.1387-3.248s-0.1703-27.145-0.2461-29.117c-0.041-1.0693-0.082-2.6739-2.2207-2.6328z" fill-rule="evenodd" fill="#fff"/>
  <path d="m1341 439.01 2.2871 7.127-6.0527 4.459 7.4863 0.0273 2.3711 7.1348 2.3379-7.1113 7.5195-0.0508-6.041-4.4199 2.2754-7.166-6.0723 4.377-6.1113-4.377zm22.908 0.082 2.2871 7.127-6.0527 4.4609 7.4844 0.0273 2.373 7.1328 2.3379-7.1094 7.5176-0.0508-6.0391-4.4219 2.2734-7.166-6.0703 4.377-6.1113-4.377zm-45.857 0.002 2.2871 7.127-6.0508 4.4609 7.4844 0.0274 2.3711 7.1328 2.3398-7.1094 7.5176-0.0508-6.0391-4.4219 2.2735-7.166-6.0703 4.3789-6.1133-4.3789z" fill-rule="evenodd" fill="#e81b23"/>
 </g>
</svg>