<?xml version="1.0"?>
<!DOCTYPE svg PUBLIC "-//W3C//DTD SVG 1.0//EN" "http://www.w3.org/TR/2001/REC-SVG-20010904/DTD/svg10.dtd">
<!-- Generated by SumoDraw, Sun Aug 27 2017 11:35:18 PM -->
<svg version="1.0" x="0" y="0" width="869" height="347" xmlns="http://www.w3.org/2000/svg" xmlns:xlink="http://www.w3.org/1999/xlink">
  <g transform="matrix(0.4000000059604645,0,0,0.4000000059604645,0,0)"/>
  <g transform="matrix(0.4000000059604645,0,0,0.4000000059604645,0,0)"/>
  <g transform="matrix(0.4000000059604645,0,0,0.4000000059604645,0,0)">
    <path transform="translate(48.15,5.3)" style="fill:#14186e;" d="M901,352 L896,345 L894,295 L895,102 L1142,99 L902,352  M1698.5,355.5 L1603,360.5 L1607,101 L1673,101 C1764.25,102.5 1814.25,135.5 1813,227 C1806.85,304.75 1789.55,347.75 1698.5,355.5 ZM1719.95,812.45 L1604.5,804.5 L1603,384 L1706.5,386 C1876,392 1970,421.5 1977,567.5 C1972.7,730.5 1906.7,801.8000000000001 1719.95,812.45 ZM919,823 L895,823 L889,789 L891,513 L891,405 L914,386 L925,384 L959,421 L1053,563 L1189.5,772 L1284,770 L1288,759 L1241,672 L1193,602 L1079,426 L1044,380 L1001,312 L1187,100 L1403.5,100 L1403.5,227 L1404.5,816 L920,823  M339.5,828 C430.75,782.5 503.25,734 512,606 C508,455.5 462.5,387 358.5,349 C200,315 110.5,267 109.5,198 C111.5,131 158,97 330,95 L701.5,96 L701,293.5 L705.5,541 L708,809.5 L708.5,822.5 L339.5,828 ZM626,846 L1763.5,842.5 C1907,832.25 2066.5,776.75 2067.5,569 C2063,414.5 1929,368 1812,366 L1778,363 C1829.25,342.15 1879.25,315.35 1883,229.5 C1885,110.4 1799,64.5 1638.5,63 L1216,64.5 L1254,19 L1248,6 L1241,6 L1229.5,12 L1176,67 L241,67 C20,72 -29.5,154.5 -30.5,247 C-29.5,340.75 30,415.75 173.5,439.5 C388.1,481.85 354.85,754.1 189.5,834 L154,848.5 L626,846 Z"/>
    <path transform="translate(-61.55,3.95)" style="fill:#c1d4f7;" d="M361,808.5 C577.5,680 647,452.5 369.5,368.5 C258,334.75 110.5,332.75 101.5,206.5 C111,365.85 172.5,384.65 332,429 C489.25,470.75 508.75,721.75 361,808.5 Z"/>
    <path transform="translate(42.35,9)" style="fill:#c1d4f7;" d="M840,810 L840,371 L838.5,276.5 L840,107 L731.5,104.5 L733.5,301 L737.5,821  "/>
    <path transform="translate(42.35,9)" style="fill:#c1d4f7;" d="M1434.5,818.5 L1548.5,814.5 L1550,645 L1548.5,100 L1430.5,101.5 L1434,605.5 L1434.5,818.5 Z"/>
  </g>
  <path transform="translate(32,129)" style="stroke:white;stroke-linecap:round;stroke-linejoin:round;fill:black;" d="M0,0 C0,0 0,0 0,0 Z"/>
</svg>