<svg xmlns="http://www.w3.org/2000/svg" height="341.97" width="341.97" viewBox="0 0 34.197461 34.197461"><path d="M17.145.154c-9.32 0-16.9 7.582-16.9 16.9 0 9.317 7.58 16.898 16.9 16.898 9.318 0 16.9-7.58 16.9-16.9 0-9.316-7.582-16.898-16.9-16.898zm0 4.34c6.924 0 12.557 5.635 12.557 12.56 0 6.924-5.634 12.556-12.557 12.556-6.925 0-12.56-5.632-12.56-12.557 0-6.923 5.635-12.558 12.56-12.558zm-5.59 5.655v13.806H16.8c4.97 0 7.87-2.96 7.87-6.944v-.038c0-3.985-2.86-6.825-7.79-6.825h-5.326zm3.826 3.392h1.558c2.288 0 3.807 1.28 3.807 3.49v.04c0 2.23-1.52 3.492-3.806 3.492h-1.56v-7.022z" fill="#00aef3"/></svg>