<svg xmlns="http://www.w3.org/2000/svg" viewBox="0 0 1000 1000"><path fill="#737373" d="M474.46 20.32c-1.86.46-11.38 2.09-20.9 3.48-37.39 6.04-78.26 25.31-106.13 49.93-33.67 29.72-57.82 78.73-67.11 137.01-5.81 36.46-6.04 124.47-.23 160.93 11.37 72.69 34.36 127.04 69.66 164.43l13.93 15.09-2.78 16.72c-3.72 23.22-10.92 45.29-18.58 56.2-5.11 7.9-12.54 12.54-45.52 29.72-99.39 51.79-187.87 103.34-217.13 126.33-30.89 24.38-51.32 55.04-60.38 90.1C14.18 890 10 931.1 10 960.13v20.44h980v-19.28c0-52.95-8.59-99.39-23.69-127.49-10.22-19.27-29.03-40.87-48.53-55.73-29.96-22.99-118.9-74.31-209.47-121.22-31.82-16.72-45.05-24.85-49.46-30.42-7.67-10.22-16.02-34.6-19.51-57.36l-3.02-18.11 13.93-14.86c35.06-37.39 58.06-92.2 69.67-165.12 4.88-31.35 5.57-119.13 1.16-150.95-16.02-114.26-77.8-181.37-181.6-197.39-19.28-3.02-54.81-4.18-65.02-2.32z"/></svg>