<svg height="512" viewBox="0 0 512 512" width="512" xmlns="http://www.w3.org/2000/svg"><style><![CDATA[
	.st0{display:inline;}
	.st1{fill:none;stroke:#000000;stroke-width:16;stroke-linecap:round;stroke-linejoin:round;stroke-miterlimit:10;}
	.st2{display:none;}
]]></style><g class="st2 st0" id="layer"><ellipse class="st1" cx="256" cy="186.538" rx="112" ry="111.538"/><path class="st1" d="M332.606 268.697C381.758 306.05 415 364.67 415 437M97 437c0-72.33 33.24-130.95 82.375-168.303"/></g><path d="M399.363 336.1c-13.48-26.447-32.057-49.445-55.264-68.492 19.787-21.322 31.9-49.812 31.9-81.07C376 120.625 322.167 67 256 67s-120 53.625-120 119.538c0 31.254 12.11 59.74 31.893 81.062-23.206 19.05-41.783 42.05-55.26 68.5C96.954 366.88 89 400.83 89 437c0 4.418 3.582 8 8 8s8-3.582 8-8c0-63.595 26.45-119.59 74.62-158.335 20.764 17.113 47.388 27.41 76.38 27.41 28.99 0 55.61-10.294 76.374-27.403C380.55 317.412 407 373.406 407 437c0 4.418 3.582 8 8 8s8-3.582 8-8c0-36.173-7.953-70.12-23.637-100.9zM152 186.54C152 129.448 198.654 83 256 83s104 46.447 104 103.538-46.654 103.538-104 103.538-104-46.448-104-103.538z" id="layer_copy"/></svg>