<svg xmlns="http://www.w3.org/2000/svg" viewBox="0 0 202 92"><g transform="matrix(.125 0 0 .125 1.328 .985)"><path fill="#e81b23" d="M-2.5 0h1600v720H-2.5z"/><path d="M373.6 185.16c-17.42-.084-36.573 1.207-47.062 3.494-77.59 16.92-132.65 76.442-142.89 154.47-2.066 15.74-.747 49.028 2.56 64.623 8.458 39.882 29.665 75.41 59.24 99.24 25.785 20.778 59.05 34.804 92.68 39.082 14.563 1.85 45.627 1.59 60.692-.51 15.437-2.154 32-6.18 46.19-11.228 20.335-7.234 51.287-24.812 65.93-37.445l5.313-4.584V338.75h-152.5v67.5H441.305l-.34 25.272-.338 25.273-11.498 6.032c-15.588 8.177-31.433 12.17-51.9 13.074-17.868.79-30.015-.698-43.72-5.36-37.802-12.856-62.868-45.52-68.525-89.292-5.03-38.92 10.524-79.492 39.436-102.86 9.986-8.07 27.022-16.452 38.747-19.06 13.2-2.937 41.93-2.014 56.21 1.806 16.59 4.436 30.266 11.94 54.282 29.785 1.816 1.35 5.045-2.048 25.772-27.122 13.033-15.766 23.834-29.397 24.004-30.293.17-.896-4.33-5.112-10-9.37-30.146-22.635-59.478-33.984-98.135-37.97-6.222-.642-13.78-.966-21.698-1.004zm387.03.58c-31 0-41.73 1.628-65.705 9.973-53.25 18.535-94.354 59.798-111.79 112.22-7.463 22.436-8.752 31.114-8.752 58.94 0 27.65 1.904 39.877 9.61 61.726 22.422 63.553 78.427 107.91 148.51 117.62 14.125 1.956 53.945.548 67.698-2.396 36.978-7.913 68.227-24.62 93.567-50.03 20.442-20.497 34.3-42.754 43.11-69.233 7.463-22.435 8.75-31.113 8.75-58.938 0-21.607-.392-26.762-2.903-37.977-16.23-72.487-67.822-123.08-141.91-139.16-10.918-2.37-16.516-2.752-40.186-2.752zm253.12 5.51v350h78.75V436.446l44.062-.522c42.153-.5 44.638-.662 57.346-3.748 45.962-11.16 78.12-37.887 91.318-75.898 10.444-30.077 8.896-68.71-3.883-96.895-13.5-29.44-40.2-51.95-73.4-61.71-20.9-6.16-25.6-6.43-112.6-6.43h-81.71zm-249.84 66.354c7.628.006 12.51.52 17.973 1.734 53.666 11.94 88.594 63.3 81.99 120.56-5.07 43.956-30.564 76.777-70.125 90.275-10.998 3.753-13.26 4.08-30.625 4.412-14.962.288-20.518-.1-27.5-1.914-20.516-5.33-36.134-14.463-50.367-29.446-22.23-23.403-33.016-56.954-29.133-90.623 5.07-43.96 30.596-76.818 70.125-90.263 10.538-3.584 13.802-4.1 28.996-4.578 3.276-.104 6.123-.16 8.666-.157zm328.54 3.65h33.803c46.968 0 59.423 2.898 73.274 17.045 9.6 9.803 12.228 17.4 12.268 35.454.03 13.588-.187 14.833-3.938 22.75-6.593 13.917-16.92 22.368-34.156 27.945-5.775 1.868-12.814 2.31-44.06 2.75l-37.19.526V261.254zm258.07 139.97a73.052 73.052 0 0 0-73.05 73.05 73.052 73.052 0 0 0 73.05 73.054 73.052 73.052 0 0 0 73.053-73.053 73.052 73.052 0 0 0-73.053-73.05z" fill="#fff"/><circle cy="474.27" cx="1350.6" r="65.747" fill="#e81b23"/></g><path d="M169.653 54.652c-2.622.017-4.894.607-4.894 3.496 0 .75.025.81.462.807l8.97-.01c.334.004.424-.077.422-.648-.008-2.986-1.902-3.664-4.96-3.644zm4.668 4.596c-.333.007-8.628.01-9.17.006-.27-.002-.365.072-.365.303 0 .478-.037 4.174-.016 4.776.007.236.138.306.313.308.39.006 1.362.02 1.722.01.247-.004.353-.122.365-.477.01-.333-.005-.884.005-1.377.004-.167.062-.288.23-.293.43-.013 2.084-.014 2.413-.005.416.01.483.005.493.437.013.513.01.827-.004 1.223-.016.423.123.463.35.468.334.007 1.105-.01 1.49-.005.513.008.503-.148.51-.817.002-.288 0-1.29-.01-1.748-.004-.113.056-.194.133-.195.313-.005.38.818.456 1.23.29 1.523.955 1.717 1.563 1.72.76.006 1.487-.626 1.49-1.927 0-.196-.04-.365-.185-.365-.643 0-.268.01-.607 0-.18-.005-.34.02-.303.298.036.278.052.795-.298.807-.15.005-.268-.102-.268-.406s-.022-3.393-.03-3.64c-.006-.133-.012-.334-.28-.328z" fill-rule="evenodd" fill="#fff"/><path d="M168.953 55.86l.286.892-.758.557.936.003.296.892.293-.89.94-.006-.755-.553.284-.896-.76.548-.763-.547zm2.864.01l.285.892-.756.558.935.003.298.892.292-.89.94-.005-.755-.553.284-.896-.76.55-.764-.55zm-5.733.002l.286.89-.756.558.935.004.296.89.292-.887.94-.007-.755-.553.284-.895-.758.547-.766-.548z" fill-rule="evenodd" fill="#e81b23"/></svg>