<svg version="1" width="869" height="347" xmlns="http://www.w3.org/2000/svg"><path d="M379.66 142.92l-2-2.8-.8-20 .4-77.2 98.8-1.2-96 101.2m318.6 1.4l-38.2 2 1.6-103.8h26.4c36.5.6 56.5 13.8 56 50.4-2.46 31.1-9.38 48.3-45.8 51.4zm8.58 182.78l-46.18-3.18-.6-168.2 41.4.8c67.8 2.4 105.4 14.2 108.2 72.6-1.72 65.2-28.12 93.72-102.82 97.98zm-320.38 4.22h-9.6l-2.4-13.6.8-110.4v-43.2l9.2-7.6 4.4-.8 13.6 14.8 37.6 56.8 54.6 83.6 37.8-.8 1.6-4.4-18.8-34.8-19.2-28-45.6-70.4-14-18.4-17.2-27.2 74.4-84.8h86.6v50.8l.4 235.6-193.8 2.8m-232.2 2c36.5-18.2 65.5-37.6 69-88.8-1.6-60.2-19.8-87.6-61.4-102.8-63.4-13.6-99.2-32.8-99.6-60.4.8-26.8 19.4-40.4 88.2-41.2l148.6.4-.2 79 1.8 99 1 107.4.2 5.2-147.6 2.2zm114.6 7.2l455-1.4c57.4-4.1 121.2-26.3 121.6-109.4-1.8-61.8-55.4-80.4-102.2-81.2l-13.6-1.2c20.5-8.34 40.5-19.06 42-53.4.8-47.64-33.6-66-97.8-66.6l-169 .6 15.2-18.2-2.4-5.2h-2.8l-4.6 2.4-21.4 22h-374c-88.4 2-108.2 35-108.6 72 .4 37.5 24.2 67.5 81.6 77 85.84 16.94 72.54 125.84 6.4 157.8l-14.2 5.8 188.8-1z" fill="#14186e"/><path d="M119.78 324.98c86.6-51.4 114.4-142.4 3.4-176-44.6-13.5-103.6-14.3-107.2-64.8 3.8 63.74 28.4 71.26 92.2 89 62.9 16.7 70.7 117.1 11.6 151.8zM352.94 327.6V152l-.6-37.8.6-67.8-43.4-1 .8 78.6 1.6 208M590.74 331l45.6-1.6.6-67.8-.6-218-47.2.6 1.4 201.6.2 85.2z" fill="#c1d4f7"/><path d="M32 129z" stroke="#fff" stroke-linecap="round" stroke-linejoin="round"/></svg>